<svg version="1.1" xmlns="http://www.w3.org/2000/svg" viewBox="0 0 511.2000732421875 624.8000640869141" width="511.2000732421875" height="624.8000640869141">
  <!-- svg-source:excalidraw -->
  
  <defs>
    <style>
      @font-face {
        font-family: "Virgil";
        src: url("https://excalidraw.com/Virgil.woff2");
      }
      @font-face {
        font-family: "Cascadia";
        src: url("https://excalidraw.com/Cascadia.woff2");
      }
    </style>
  </defs>
  <g stroke-linecap="round" transform="translate(18.800048828125 11.999969482421875) rotate(0 93.19998168945312 29.20000457763672)"><path d="M14.6 0 M14.6 0 C74.56 -1.32, 131.15 -1.87, 171.8 0 M14.6 0 C59.89 1.58, 103.32 -1.29, 171.8 0 M171.8 0 C181.04 2.81, 187.34 5.43, 186.4 14.6 M171.8 0 C184.29 4.32, 181.96 8.99, 186.4 14.6 M186.4 14.6 C189.69 22.15, 187.07 29.25, 186.4 43.8 M186.4 14.6 C188.05 21.46, 188.17 29.86, 186.4 43.8 M186.4 43.8 C184.95 56.98, 183.22 59, 171.8 58.4 M186.4 43.8 C190.38 51.49, 184.72 58.41, 171.8 58.4 M171.8 58.4 C117.2 59.09, 68.8 59.29, 14.6 58.4 M171.8 58.4 C116.95 58.29, 67.43 59.03, 14.6 58.4 M14.6 58.4 C5.18 62.33, -2.47 55.68, 0 43.8 M14.6 58.4 C3.97 61.89, -4.42 55.28, 0 43.8 M0 43.8 C2.09 31.74, -3.58 20.37, 0 14.6 M0 43.8 C0.72 36.23, -0.96 29.08, 0 14.6 M0 14.6 C3.89 3.22, 4.51 -2.64, 14.6 0 M0 14.6 C3.05 3.31, 1.24 -1, 14.6 0" stroke="#000000" stroke-width="1" fill="none"></path></g><g stroke-linecap="round" transform="translate(15.2000732421875 421.9999694824219) rotate(0 93.19998168945312 29.20000457763672)"><path d="M14.6 0 M14.6 0 C47.86 2.4, 83.4 -2.16, 171.8 0 M14.6 0 C75.15 1.39, 133.09 2.76, 171.8 0 M171.8 0 C177.91 -2.07, 188.54 8.52, 186.4 14.6 M171.8 0 C178.88 -1.21, 186.66 5.57, 186.4 14.6 M186.4 14.6 C186.84 18.43, 186.81 25.77, 186.4 43.8 M186.4 14.6 C184.82 20.77, 187.44 25.95, 186.4 43.8 M186.4 43.8 C182.97 52.28, 178.03 56.43, 171.8 58.4 M186.4 43.8 C186.18 56.37, 180.76 58.77, 171.8 58.4 M171.8 58.4 C119.56 55.91, 63.32 58.01, 14.6 58.4 M171.8 58.4 C119.79 56.25, 66.02 59.76, 14.6 58.4 M14.6 58.4 C5.81 61.89, -0.93 54.39, 0 43.8 M14.6 58.4 C5.32 57.37, -1.61 54.38, 0 43.8 M0 43.8 C0.83 37.27, -0.75 30.22, 0 14.6 M0 43.8 C1.07 34.36, 0.4 22.01, 0 14.6 M0 14.6 C-2.22 5.44, 8.1 -2.41, 14.6 0 M0 14.6 C4.18 6.72, 8.1 0.19, 14.6 0" stroke="#000000" stroke-width="1" fill="none"></path></g><g stroke-linecap="round" transform="translate(14.4000244140625 146.79998779296875) rotate(0 93.19998168945312 29.20000457763672)"><path d="M14.6 0 M14.6 0 C62.76 -4.45, 108.59 -5.74, 171.8 0 M14.6 0 C65.69 -3.88, 117.28 -2.03, 171.8 0 M171.8 0 C181.04 -4, 185.7 7.85, 186.4 14.6 M171.8 0 C177.49 -1.64, 182.95 3.49, 186.4 14.6 M186.4 14.6 C190.3 21.57, 187.16 30.6, 186.4 43.8 M186.4 14.6 C188.17 20.55, 187.5 24.58, 186.4 43.8 M186.4 43.8 C186.25 54.8, 184.2 56.22, 171.8 58.4 M186.4 43.8 C182.64 51.58, 185.66 56.36, 171.8 58.4 M171.8 58.4 C116.88 53.15, 56.49 56.5, 14.6 58.4 M171.8 58.4 C137.26 59.95, 101.76 59.07, 14.6 58.4 M14.6 58.4 C4.52 59.2, 0.3 50.24, 0 43.8 M14.6 58.4 C0.53 58.4, 2.19 49.46, 0 43.8 M0 43.8 C0.01 32.39, -1.93 24.52, 0 14.6 M0 43.8 C1.11 36.88, -0.34 32.2, 0 14.6 M0 14.6 C-2.54 5.63, 8.66 2.81, 14.6 0 M0 14.6 C1.64 7.34, 3.64 1.77, 14.6 0" stroke="#000000" stroke-width="1" fill="none"></path></g><g stroke-linecap="round" transform="translate(10 279.1999816894531) rotate(0 93.19998168945312 29.20000457763672)"><path d="M14.6 0 M14.6 0 C56.96 -2.57, 102.91 0.67, 171.8 0 M14.6 0 C69.65 -1.89, 129.21 -3.99, 171.8 0 M171.8 0 C184.67 -3.1, 190.23 4.49, 186.4 14.6 M171.8 0 C179.86 0.72, 183.21 7.79, 186.4 14.6 M186.4 14.6 C183.03 24.92, 190.35 41.34, 186.4 43.8 M186.4 14.6 C185.66 22.92, 188.52 33.99, 186.4 43.8 M186.4 43.8 C189.25 54.24, 184.35 58.13, 171.8 58.4 M186.4 43.8 C189.58 49.05, 185.7 58.81, 171.8 58.4 M171.8 58.4 C120.31 61.26, 74.27 59.02, 14.6 58.4 M171.8 58.4 C128.13 58.93, 86.09 61.62, 14.6 58.4 M14.6 58.4 C3.12 61.79, 0.81 54.44, 0 43.8 M14.6 58.4 C9.42 58.19, 2.74 57.89, 0 43.8 M0 43.8 C-0.81 31.96, -1.92 25.48, 0 14.6 M0 43.8 C1.23 37.45, 0.81 27.39, 0 14.6 M0 14.6 C2.02 1.16, 3.89 -2.17, 14.6 0 M0 14.6 C-2.13 4.31, 3.22 -0.69, 14.6 0" stroke="#000000" stroke-width="1" fill="none"></path></g><g stroke-linecap="round" transform="translate(311.2000732421875 10) rotate(0 93.19998168945312 29.20000457763672)"><path d="M14.6 0 M14.6 0 C46.61 0.94, 79.88 3.41, 171.8 0 M14.6 0 C71.92 -3.01, 131.27 -1.76, 171.8 0 M171.8 0 C180.92 2.77, 182.52 6.73, 186.4 14.6 M171.8 0 C177.89 3.95, 182.2 0.27, 186.4 14.6 M186.4 14.6 C184.48 25.99, 183.09 35.38, 186.4 43.8 M186.4 14.6 C186.93 22.83, 187.03 30.81, 186.4 43.8 M186.4 43.8 C187.22 52.1, 180.17 56.23, 171.8 58.4 M186.4 43.8 C189.75 55.13, 185.96 60.1, 171.8 58.4 M171.8 58.4 C125.87 57.15, 76.25 53.52, 14.6 58.4 M171.8 58.4 C138.45 61.09, 102.43 59.8, 14.6 58.4 M14.6 58.4 C6.77 61.9, 0.82 51.4, 0 43.8 M14.6 58.4 C0.41 55.22, -1.55 53.94, 0 43.8 M0 43.8 C1.39 34.34, 3.24 27.21, 0 14.6 M0 43.8 C0.13 32.05, -1.58 24.4, 0 14.6 M0 14.6 C-0.73 8.62, 6.97 -0.56, 14.6 0 M0 14.6 C0.53 2.6, 8.41 -0.6, 14.6 0" stroke="#000000" stroke-width="1" fill="none"></path></g><g stroke-linecap="round" transform="translate(312.400146484375 144.80001831054688) rotate(0 93.19998168945312 29.20000457763672)"><path d="M14.6 0 M14.6 0 C66.12 -1.49, 117.13 -5.52, 171.8 0 M14.6 0 C50.34 -1.4, 83.13 0.24, 171.8 0 M171.8 0 C178.16 0.47, 186.39 7.7, 186.4 14.6 M171.8 0 C178.97 -1.71, 184.95 6.13, 186.4 14.6 M186.4 14.6 C187.28 28.47, 189.99 36.3, 186.4 43.8 M186.4 14.6 C186.55 24.67, 185.81 34.7, 186.4 43.8 M186.4 43.8 C187.26 57.35, 178.24 60.45, 171.8 58.4 M186.4 43.8 C182.68 54.79, 185.18 54.11, 171.8 58.4 M171.8 58.4 C133.96 57.23, 98.69 57.19, 14.6 58.4 M171.8 58.4 C127.47 55.49, 86.2 57.19, 14.6 58.4 M14.6 58.4 C3.16 62.17, -2.93 50.89, 0 43.8 M14.6 58.4 C4.06 54, 2.02 48.95, 0 43.8 M0 43.8 C0.47 36.64, 1.25 28.83, 0 14.6 M0 43.8 C0 39.17, 0.89 31.2, 0 14.6 M0 14.6 C2.36 3.59, 4.19 0.46, 14.6 0 M0 14.6 C2.53 3.71, 9.05 1.57, 14.6 0" stroke="#000000" stroke-width="1" fill="none"></path></g><g stroke-linecap="round" transform="translate(309.60009765625 280.40003967285156) rotate(0 93.19998168945312 29.20000457763672)"><path d="M14.6 0 M14.6 0 C66.94 1.46, 116.19 1.48, 171.8 0 M14.6 0 C56.64 0.49, 96.99 1.21, 171.8 0 M171.8 0 C180.9 0.82, 190.33 8.01, 186.4 14.6 M171.8 0 C179.05 2.8, 181.87 0.75, 186.4 14.6 M186.4 14.6 C183.42 21.63, 185.42 26.79, 186.4 43.8 M186.4 14.6 C185.64 28.07, 186.92 38.7, 186.4 43.8 M186.4 43.8 C184.94 55.86, 181.06 57.69, 171.8 58.4 M186.4 43.8 C187.2 55.56, 181.72 62.39, 171.8 58.4 M171.8 58.4 C126.3 63.42, 72.21 56.84, 14.6 58.4 M171.8 58.4 C126.81 55.62, 78.4 56.75, 14.6 58.4 M14.6 58.4 C6.54 54.52, 1.52 52.09, 0 43.8 M14.6 58.4 C6.16 59.21, -1.17 57.04, 0 43.8 M0 43.8 C2.38 34.84, 2.62 23.44, 0 14.6 M0 43.8 C-1.93 32.71, -1.83 23.34, 0 14.6 M0 14.6 C-2.83 3.55, 3.79 2.98, 14.6 0 M0 14.6 C2.83 6.16, 4.76 3.54, 14.6 0" stroke="#000000" stroke-width="1" fill="none"></path></g><g stroke-linecap="round" transform="translate(307.60009765625 422.40003967285156) rotate(0 93.19998168945312 29.20000457763672)"><path d="M14.6 0 M14.6 0 C76.18 4.31, 134.61 2.25, 171.8 0 M14.6 0 C72.43 -1.96, 127.3 -2.39, 171.8 0 M171.8 0 C177.93 -3.76, 185.58 1.44, 186.4 14.6 M171.8 0 C185.79 0.85, 185.85 4.42, 186.4 14.6 M186.4 14.6 C186.01 24.86, 186.78 27.1, 186.4 43.8 M186.4 14.6 C188.02 19.18, 188.13 25.54, 186.4 43.8 M186.4 43.8 C187.23 54.45, 183.84 58.09, 171.8 58.4 M186.4 43.8 C187.04 53.42, 183.62 61.73, 171.8 58.4 M171.8 58.4 C135.85 58.7, 99.37 51.8, 14.6 58.4 M171.8 58.4 C111.15 57.92, 52.86 58.11, 14.6 58.4 M14.6 58.4 C1.77 56.27, -3.74 56.48, 0 43.8 M14.6 58.4 C5.63 58.64, 2.55 49.24, 0 43.8 M0 43.8 C-3.56 33.15, 2.05 26.11, 0 14.6 M0 43.8 C0.91 32.66, -1.45 20.65, 0 14.6 M0 14.6 C-3.36 4.13, 4 -1.45, 14.6 0 M0 14.6 C2.21 0.49, 5.11 -1.39, 14.6 0" stroke="#000000" stroke-width="1" fill="none"></path></g><g stroke-linecap="round" transform="translate(12.80010986328125 556.4000549316406) rotate(0 93.19998168945312 29.20000457763672)"><path d="M14.6 0 M14.6 0 C55.53 2.33, 105.15 0.25, 171.8 0 M14.6 0 C72.83 1.32, 133.74 1.14, 171.8 0 M171.8 0 C178.66 3.97, 189.53 2.87, 186.4 14.6 M171.8 0 C183.92 -3.37, 186.5 6.63, 186.4 14.6 M186.4 14.6 C183.67 20.75, 186.62 28.55, 186.4 43.8 M186.4 14.6 C188.02 20.53, 186.39 31.58, 186.4 43.8 M186.4 43.8 C190.23 55.45, 179.86 55.15, 171.8 58.4 M186.4 43.8 C188.05 56.54, 185.03 57.23, 171.8 58.4 M171.8 58.4 C131.68 59.84, 100.92 54.93, 14.6 58.4 M171.8 58.4 C122.84 59.24, 74.67 59.89, 14.6 58.4 M14.6 58.4 C7.14 54.5, 0.81 54.12, 0 43.8 M14.6 58.4 C7.8 57, -0.15 51.88, 0 43.8 M0 43.8 C0.51 32.95, 3.43 26.84, 0 14.6 M0 43.8 C0.48 37.16, -1.43 28.81, 0 14.6 M0 14.6 C1.52 5.96, 7.81 -3.37, 14.6 0 M0 14.6 C3.84 3.76, 5.22 -2.52, 14.6 0" stroke="#000000" stroke-width="1" fill="none"></path></g><g stroke-linecap="round" transform="translate(314.80010986328125 552.8000793457031) rotate(0 93.19998168945312 29.20000457763672)"><path d="M14.6 0 M14.6 0 C45.86 -5.18, 88.47 -3.62, 171.8 0 M14.6 0 C47.67 3.68, 82.13 0.75, 171.8 0 M171.8 0 C179.27 0.19, 186.29 4.61, 186.4 14.6 M171.8 0 C184.4 -3.94, 182.64 2.41, 186.4 14.6 M186.4 14.6 C186.4 26.34, 185.78 32.73, 186.4 43.8 M186.4 14.6 C187.81 20.44, 187.55 31.52, 186.4 43.8 M186.4 43.8 C190.24 52.5, 179.93 56.23, 171.8 58.4 M186.4 43.8 C182.29 52.65, 183.4 54.64, 171.8 58.4 M171.8 58.4 C141.79 55.64, 107.15 56.06, 14.6 58.4 M171.8 58.4 C136.94 58.88, 97.4 58.12, 14.6 58.4 M14.6 58.4 C1.65 56.24, 1.41 57.16, 0 43.8 M14.6 58.4 C9.13 60.31, -1.61 50.23, 0 43.8 M0 43.8 C-2.95 36.28, 0.66 28.81, 0 14.6 M0 43.8 C-0.96 35.56, -0.24 26.87, 0 14.6 M0 14.6 C2.69 4.85, 5.96 -1.91, 14.6 0 M0 14.6 C-3.69 5.3, 7.95 1.05, 14.6 0" stroke="#000000" stroke-width="1" fill="none"></path></g><g transform="translate(46.800048828125 28.5999755859375) rotate(0 70.5 12.5)"><text x="0" y="18" font-family="Virgil, Segoe UI Emoji" font-size="20px" fill="#000000" text-anchor="start" style="white-space: pre;" direction="ltr">Execute class</text></g><g transform="translate(48 149.79998779296875) rotate(0 59 25)"><text x="59" y="18" font-family="Virgil, Segoe UI Emoji" font-size="20px" fill="#000000" text-anchor="middle" style="white-space: pre;" direction="ltr">TourOptions</text><text x="59" y="43" font-family="Virgil, Segoe UI Emoji" font-size="20px" fill="#000000" text-anchor="middle" style="white-space: pre;" direction="ltr">class</text></g><g transform="translate(58.5999755859375 282.1999816894531) rotate(0 44 25)"><text x="44" y="18" font-family="Virgil, Segoe UI Emoji" font-size="20px" fill="#000000" text-anchor="middle" style="white-space: pre;" direction="ltr">TourInfo</text><text x="44" y="43" font-family="Virgil, Segoe UI Emoji" font-size="20px" fill="#000000" text-anchor="middle" style="white-space: pre;" direction="ltr">class</text></g><g transform="translate(334.00006103515625 26.999969482421875) rotate(0 69 12.5)"><text x="0" y="18" font-family="Virgil, Segoe UI Emoji" font-size="20px" fill="#000000" text-anchor="start" style="white-space: pre;" direction="ltr">Welcome class</text></g><g stroke-linecap="round"><g transform="translate(214.65954807847743 43.97500704501921) rotate(0 43.73354350328452 -0.0817005965076163)"><path d="M-0.57 -0.96 C14.02 -1.04, 73.42 0.4, 88.04 0.66 M1.33 1.16 C15.76 1.2, 73.21 -1.46, 87.35 -1.32" stroke="#000000" stroke-width="1" fill="none"></path></g><g transform="translate(214.65954807847743 43.97500704501921) rotate(0 43.73354350328452 -0.0817005965076163)"><path d="M57.8 10.38 C69.36 5.3, 78.82 1.82, 85.98 -2.47 M58.73 9.59 C64.44 7.55, 71.01 4.43, 86.88 -1.06" stroke="#000000" stroke-width="1" fill="none"></path></g><g transform="translate(214.65954807847743 43.97500704501921) rotate(0 43.73354350328452 -0.0817005965076163)"><path d="M57.35 -10.13 C69.26 -8.16, 78.88 -4.59, 85.98 -2.47 M58.28 -10.93 C63.98 -8.69, 70.63 -7.51, 86.88 -1.06" stroke="#000000" stroke-width="1" fill="none"></path></g></g><g transform="translate(319.60003662109375 146.99996948242188) rotate(0 85.5 25)"><text x="85.5" y="18" font-family="Virgil, Segoe UI Emoji" font-size="20px" fill="#000000" text-anchor="middle" style="white-space: pre;" direction="ltr">ChooseCategories</text><text x="85.5" y="43" font-family="Virgil, Segoe UI Emoji" font-size="20px" fill="#000000" text-anchor="middle" style="white-space: pre;" direction="ltr">class</text></g><g transform="translate(339.70001220703125 292.99998474121094) rotate(0 65 12.5)"><text x="65" y="18" font-family="Virgil, Segoe UI Emoji" font-size="20px" fill="#000000" text-anchor="middle" style="white-space: pre;" direction="ltr">Display class</text></g><g transform="translate(340.20001220703125 426.99998474121094) rotate(0 62.5 25)"><text x="62.5" y="18" font-family="Virgil, Segoe UI Emoji" font-size="20px" fill="#000000" text-anchor="middle" style="white-space: pre;" direction="ltr">InputDetails</text><text x="62.5" y="43" font-family="Virgil, Segoe UI Emoji" font-size="20px" fill="#000000" text-anchor="middle" style="white-space: pre;" direction="ltr">class</text></g><g transform="translate(55.20001220703125 427.40000915527344) rotate(0 57.5 25)"><text x="57.5" y="18" font-family="Virgil, Segoe UI Emoji" font-size="20px" fill="#000000" text-anchor="middle" style="white-space: pre;" direction="ltr">DetailsForm</text><text x="57.5" y="43" font-family="Virgil, Segoe UI Emoji" font-size="20px" fill="#000000" text-anchor="middle" style="white-space: pre;" direction="ltr">class</text></g><g stroke-linecap="round"><g transform="translate(406.85820278548056 77.07109484643675) rotate(0 -0.7471040342911692 29.940676829591396)"><path d="M-0.02 0.86 C0.05 10.71, -0.18 49.82, -0.18 59.61 M-1.49 0.27 C-1.48 9.72, -1.02 48.28, -0.84 57.85" stroke="#000000" stroke-width="1" fill="none"></path></g><g transform="translate(406.85820278548056 77.07109484643675) rotate(0 -0.7471040342911692 29.940676829591396)"><path d="M-9.88 31.23 C-7.42 38.42, -4.77 42.96, -2.65 56.76 M-10.8 29.42 C-9.26 35.31, -6.59 40.81, -1.69 58.45" stroke="#000000" stroke-width="1" fill="none"></path></g><g transform="translate(406.85820278548056 77.07109484643675) rotate(0 -0.7471040342911692 29.940676829591396)"><path d="M10.27 30.94 C7.67 38.2, 5.25 42.81, -2.65 56.76 M9.35 29.12 C6.71 35.25, 5.19 40.82, -1.69 58.45" stroke="#000000" stroke-width="1" fill="none"></path></g></g><g stroke-linecap="round"><g transform="translate(406.40640877381725 208.21598068997264) rotate(0 0.36324628185940355 32.53865180897992)"><path d="M-0.32 -0.98 C-0.14 9.81, 0.11 53.86, 0.12 64.75 M1.72 1.11 C1.8 12.08, -0.47 55.38, -0.99 66.06" stroke="#000000" stroke-width="1" fill="none"></path></g><g transform="translate(406.40640877381725 208.21598068997264) rotate(0 0.36324628185940355 32.53865180897992)"><path d="M-11.48 36.88 C-8.6 42.56, -7.38 50.45, -2.75 65.21 M-8.86 38.18 C-8.23 45.11, -6.47 50.73, -1.5 66.01" stroke="#000000" stroke-width="1" fill="none"></path></g><g transform="translate(406.40640877381725 208.21598068997264) rotate(0 0.36324628185940355 32.53865180897992)"><path d="M9.02 37.89 C7.38 43.3, 4.1 50.96, -2.75 65.21 M11.64 39.2 C7.18 45.92, 3.84 51.28, -1.5 66.01" stroke="#000000" stroke-width="1" fill="none"></path></g></g><g stroke-linecap="round"><g transform="translate(404.2987187727326 347.47290841862565) rotate(0 0.077019445259225 32.005335695715615)"><path d="M0.71 -0.53 C0.9 10.19, 0.27 53.77, 0.4 64.54 M-0.38 1.81 C-0.28 12.17, -0.78 52.17, -0.5 62.79" stroke="#000000" stroke-width="1" fill="none"></path></g><g transform="translate(404.2987187727326 347.47290841862565) rotate(0 0.077019445259225 32.005335695715615)"><path d="M-11.78 34.8 C-7.19 43.17, -5.47 49.31, -1.78 62.49 M-11.1 33.79 C-8 40.97, -6.81 46.73, -1.22 61.93" stroke="#000000" stroke-width="1" fill="none"></path></g><g transform="translate(404.2987187727326 347.47290841862565) rotate(0 0.077019445259225 32.005335695715615)"><path d="M8.74 34.7 C8.45 43.22, 5.28 49.38, -1.78 62.49 M9.42 33.69 C8.12 40.7, 4.9 46.48, -1.22 61.93" stroke="#000000" stroke-width="1" fill="none"></path></g></g><g stroke-linecap="round"><g transform="translate(106.41275158811084 487.24389297527273) rotate(0 0.6051474399903327 32.52331928955397)"><path d="M-0.74 -0.07 C-0.22 10.93, 1.52 53.91, 1.95 65.03 M1.07 -1.16 C1.64 10.08, 1.51 55.22, 1.6 66.2" stroke="#000000" stroke-width="1" fill="none"></path></g><g transform="translate(106.41275158811084 487.24389297527273) rotate(0 0.6051474399903327 32.52331928955397)"><path d="M-8.86 39.92 C-8.04 45.45, -3.29 48.68, -0.4 66.28 M-7.74 38.82 C-6.82 45.24, -4.63 51.36, 1.98 66.08" stroke="#000000" stroke-width="1" fill="none"></path></g><g transform="translate(106.41275158811084 487.24389297527273) rotate(0 0.6051474399903327 32.52331928955397)"><path d="M11.66 39.87 C8.34 45.28, 8.95 48.52, -0.4 66.28 M12.78 38.77 C8.88 45.06, 6.25 51.18, 1.98 66.08" stroke="#000000" stroke-width="1" fill="none"></path></g></g><g stroke-linecap="round"><g transform="translate(206.8490606310778 176.17221449726105) rotate(0 47.65617072239979 0.6166474467114824)"><path d="M0.19 -1.02 C16.34 -0.94, 80.49 0.51, 96.49 0.67 M-1.18 1.06 C14.9 1.33, 79.7 2.29, 95.82 2.25" stroke="#000000" stroke-width="1" fill="none"></path></g><g transform="translate(206.8490606310778 176.17221449726105) rotate(0 47.65617072239979 0.6166474467114824)"><path d="M26.86 -9.88 C21.23 -7.76, 12.44 -6.44, 0.87 -2.18 M29.05 -9.97 C22.14 -9.51, 15.74 -5.32, 1.17 -0.55" stroke="#000000" stroke-width="1" fill="none"></path></g><g transform="translate(206.8490606310778 176.17221449726105) rotate(0 47.65617072239979 0.6166474467114824)"><path d="M26.49 10.64 C20.93 7.33, 12.23 3.24, 0.87 -2.18 M28.68 10.55 C21.97 6.03, 15.66 5.25, 1.17 -0.55" stroke="#000000" stroke-width="1" fill="none"></path></g><g transform="translate(206.8490606310778 176.17221449726105) rotate(0 47.65617072239979 0.6166474467114824)"><path d="M65.86 13.19 C75.16 9.99, 81.33 6.08, 96.5 1.09 M68.05 13.11 C74.98 9, 82.3 8.39, 96.81 2.72" stroke="#000000" stroke-width="1" fill="none"></path></g><g transform="translate(206.8490606310778 176.17221449726105) rotate(0 47.65617072239979 0.6166474467114824)"><path d="M66.01 -7.33 C75.31 -5.11, 81.44 -3.59, 96.5 1.09 M68.2 -7.41 C74.99 -6.55, 82.27 -2.18, 96.81 2.72" stroke="#000000" stroke-width="1" fill="none"></path></g></g><g stroke-linecap="round"><g transform="translate(207.214376514405 308.27196865792513) rotate(0 47.29331774376334 0.40883855794709234)"><path d="M-0.79 0.11 C15.11 0.48, 79.4 1.38, 95.37 1.69 M1 -0.87 C16.76 -0.81, 78.99 -0.24, 94.52 -0.07" stroke="#000000" stroke-width="1" fill="none"></path></g><g transform="translate(207.214376514405 308.27196865792513) rotate(0 47.29331774376334 0.40883855794709234)"><path d="M27.76 -9.37 C20.24 -7.19, 12.25 -5.34, -0.09 1.98 M28.53 -9.78 C20.77 -7.5, 13.93 -4.77, 0.17 0.78" stroke="#000000" stroke-width="1" fill="none"></path></g><g transform="translate(207.214376514405 308.27196865792513) rotate(0 47.29331774376334 0.40883855794709234)"><path d="M27.43 11.15 C20.08 7.2, 12.19 2.93, -0.09 1.98 M28.19 10.74 C20.35 8.31, 13.58 6.33, 0.17 0.78" stroke="#000000" stroke-width="1" fill="none"></path></g><g transform="translate(207.214376514405 308.27196865792513) rotate(0 47.29331774376334 0.40883855794709234)"><path d="M66.42 10.23 C75.89 6.88, 84.81 2.82, 95.22 1.8 M67.19 9.82 C72.29 8, 78.46 6.19, 95.47 0.6" stroke="#000000" stroke-width="1" fill="none"></path></g><g transform="translate(207.214376514405 308.27196865792513) rotate(0 47.29331774376334 0.40883855794709234)"><path d="M66.63 -10.29 C75.95 -7.52, 84.81 -5.45, 95.22 1.8 M67.39 -10.7 C72.6 -7.81, 78.73 -4.91, 95.47 0.6" stroke="#000000" stroke-width="1" fill="none"></path></g></g><g stroke-linecap="round"><g transform="translate(300.1982122846737 450.61995542115835) rotate(180.4001881411454 -46.4037245955966 -1.377932905662476)"><path d="M0.79 0.26 C-14.48 -0.25, -77.03 -2.63, -92.63 -3.02 M-0.25 -0.65 C-15.6 -0.98, -78.02 -1.03, -93.6 -1.59" stroke="#000000" stroke-width="1" fill="none"></path></g><g transform="translate(300.1982122846737 450.61995542115835) rotate(180.4001881411454 -46.4037245955966 -1.377932905662476)"><path d="M-27.31 9.44 C-21.85 6.9, -14.02 6.2, -1.11 1.6 M-28.3 9.64 C-16.85 5.72, -6.62 3.45, 1.5 0.3" stroke="#000000" stroke-width="1" fill="none"></path></g><g transform="translate(300.1982122846737 450.61995542115835) rotate(180.4001881411454 -46.4037245955966 -1.377932905662476)"><path d="M-26.57 -11.07 C-21.26 -9.11, -13.6 -5.31, -1.11 1.6 M-27.56 -10.87 C-16.3 -7.51, -6.34 -2.51, 1.5 0.3" stroke="#000000" stroke-width="1" fill="none"></path></g></g><g transform="translate(57.50006103515625 574.5999603271484) rotate(0 45.5 12.5)"><text x="45.5" y="18" font-family="Virgil, Segoe UI Emoji" font-size="20px" fill="#000000" text-anchor="middle" style="white-space: pre;" direction="ltr">Bill class</text></g><g transform="translate(354.00006103515625 570.9999847412109) rotate(0 51 12.5)"><text x="51" y="18" font-family="Virgil, Segoe UI Emoji" font-size="20px" fill="#000000" text-anchor="middle" style="white-space: pre;" direction="ltr">Exit class</text></g><g stroke-linecap="round"><g transform="translate(205.16551930190894 584.4495191338181) rotate(179.99757728668857 50.01601233919098 0.5315670811027076)"><path d="M0.93 0.16 C17.59 0.34, 83.5 1.9, 100.07 1.91 M-0.03 -0.8 C16.45 -1.05, 82.51 -0.21, 99.14 0.08" stroke="#000000" stroke-width="1" fill="none"></path></g><g transform="translate(205.16551930190894 584.4495191338181) rotate(179.99757728668857 50.01601233919098 0.5315670811027076)"><path d="M29.58 -9.51 C21.41 -5.79, 9.69 -3.65, 0.2 -0.24 M29.83 -9.38 C20.22 -5.91, 9.63 -1.86, 0.73 0.17" stroke="#000000" stroke-width="1" fill="none"></path></g><g transform="translate(205.16551930190894 584.4495191338181) rotate(179.99757728668857 50.01601233919098 0.5315670811027076)"><path d="M29.19 11.01 C21 8.29, 9.41 4, 0.2 -0.24 M29.44 11.14 C19.77 7.42, 9.31 4.29, 0.73 0.17" stroke="#000000" stroke-width="1" fill="none"></path></g></g></svg>